<svg xmlns="http://www.w3.org/2000/svg" width="21.613" height="21.615" viewBox="0 0 21.613 21.615">
  <g id="Group_13717" data-name="Group 13717" transform="translate(0)">
    <g id="arrow-down-short" transform="translate(21.613 0) rotate(90)">
      <path id="Path_3056" data-name="Path 3056" d="M.453.453a1.544,1.544,0,0,1,2.186,0l8.168,8.172L18.977.453a1.546,1.546,0,1,1,2.186,2.186L11.9,11.9a1.544,1.544,0,0,1-2.186,0L.453,2.639a1.544,1.544,0,0,1,0-2.186Z" transform="translate(0 9.258)" fill-rule="evenodd"/>
      <path id="Path_3057" data-name="Path 3057" d="M1.544,0A1.544,1.544,0,0,1,3.087,1.544V16.98A1.544,1.544,0,0,1,0,16.98V1.544A1.544,1.544,0,0,1,1.544,0Z" transform="translate(9.264 0)" fill-rule="evenodd"/>
    </g>
  </g>
</svg>
