<svg xmlns="http://www.w3.org/2000/svg" width="29" height="29" viewBox="0 0 29 29">
  <g id="Group_21119" data-name="Group 21119" transform="translate(-0.086 0)">
    <g id="linkedin-logo_1_" data-name="linkedin-logo (1)" transform="translate(8.99 7.549)">
      <path id="LinkedIn" d="M12.908,17.579v5.062H10.141V17.918c0-1.186-.4-2-1.4-2A1.526,1.526,0,0,0,7.32,17a2.121,2.121,0,0,0-.092.716v4.93H4.461s.037-8,0-8.828H7.228v1.251l-.018.029h.018v-.029a2.728,2.728,0,0,1,2.494-1.459C11.543,13.606,12.908,14.868,12.908,17.579ZM1.566,9.558a1.526,1.526,0,1,0-.037,3.051h.018a1.526,1.526,0,1,0,.018-3.051ZM.164,22.641H2.931V13.814H.164Z" transform="translate(0 -9.558)" fill="#fff"/>
    </g>
    <g id="Ellipse_17" data-name="Ellipse 17" transform="translate(0.086 0)" fill="none" stroke="#9c9ca8" stroke-width="1">
      <circle cx="14.5" cy="14.5" r="14.5" stroke="none"/>
      <circle cx="14.5" cy="14.5" r="14" fill="none"/>
    </g>
  </g>
</svg>
