<svg xmlns="http://www.w3.org/2000/svg" width="8.771" height="10.586" viewBox="0 0 8.771 10.586">
  <g id="pin" transform="translate(-4.5 -1.5)">
    <path id="Path_24130" data-name="Path 24130" d="M16.306,11.357a1.949,1.949,0,1,1-1.949-1.949A1.949,1.949,0,0,1,16.306,11.357Zm-.975,0a.975.975,0,1,1-.975-.975A.975.975,0,0,1,15.332,11.357Z" transform="translate(-5.339 -5.339)" fill-rule="evenodd"/>
    <path id="Path_24131" data-name="Path 24131" d="M5.861,9.062a4.386,4.386,0,1,1,6.2-.152L9.038,12.086,5.861,9.062Zm5.495-.824L9,10.708,6.534,8.356a3.411,3.411,0,1,1,4.823-.118Z" transform="translate(0 0)" fill-rule="evenodd"/>
  </g>
</svg>
