<svg xmlns="http://www.w3.org/2000/svg" width="28" height="29" viewBox="0 0 28 29">
  <g id="Group_21120" data-name="Group 21120" transform="translate(0.346 0)">
    <g id="XMLID_798_" transform="translate(8.44 7.549)">
      <path id="XMLID_799_" d="M42.573,1.341A5.413,5.413,0,0,0,38.89,0a5.937,5.937,0,0,0-4.27,1.569,4.531,4.531,0,0,0-1.439,3.213,2.992,2.992,0,0,0,1.71,2.99.59.59,0,0,0,.215.042.473.473,0,0,0,.467-.367c.036-.13.12-.449.156-.588a.535.535,0,0,0-.155-.6,1.845,1.845,0,0,1-.454-1.3,3.354,3.354,0,0,1,3.558-3.292c1.834,0,2.973.993,2.973,2.592a5.182,5.182,0,0,1-.642,2.631,1.9,1.9,0,0,1-1.571,1.048,1.063,1.063,0,0,1-.828-.361.875.875,0,0,1-.167-.789c.082-.33.193-.674.3-1.006a5.977,5.977,0,0,0,.383-1.639A1.215,1.215,0,0,0,37.87,2.839a1.915,1.915,0,0,0-1.7,2.1A3,3,0,0,0,36.4,6.121c-.12.486-.835,3.374-.971,3.919-.078.318-.551,2.829.231,3.029.879.225,1.664-2.221,1.744-2.5.065-.225.291-1.075.43-1.6a2.731,2.731,0,0,0,1.772.653A4.021,4.021,0,0,0,42.78,8.115,5.877,5.877,0,0,0,43.973,4.4,4.189,4.189,0,0,0,42.573,1.341Z" transform="translate(-33.181 0)" fill="#fff"/>
    </g>
    <g id="Ellipse_18" data-name="Ellipse 18" transform="translate(-0.346 0)" fill="none" stroke="#9c9ca8" stroke-width="1">
      <ellipse cx="14" cy="14.5" rx="14" ry="14.5" stroke="none"/>
      <ellipse cx="14" cy="14.5" rx="13.5" ry="14" fill="none"/>
    </g>
  </g>
</svg>
