<svg xmlns="http://www.w3.org/2000/svg" width="29" height="29" viewBox="0 0 29 29">
  <g id="Group_21118" data-name="Group 21118" transform="translate(0.445 0)">
    <path id="twitter_1_" data-name="twitter (1)" d="M16.1,49.549a6.883,6.883,0,0,1-1.9.521,3.283,3.283,0,0,0,1.452-1.825,6.6,6.6,0,0,1-2.093.8A3.3,3.3,0,0,0,7.849,51.3a3.4,3.4,0,0,0,.076.753,9.344,9.344,0,0,1-6.8-3.453,3.3,3.3,0,0,0,1.015,4.412,3.26,3.26,0,0,1-1.492-.407v.036a3.316,3.316,0,0,0,2.645,3.244A3.3,3.3,0,0,1,2.424,56,2.919,2.919,0,0,1,1.8,55.94a3.333,3.333,0,0,0,3.085,2.3A6.633,6.633,0,0,1,.79,59.648,6.183,6.183,0,0,1,0,59.6a9.294,9.294,0,0,0,5.064,1.482,9.331,9.331,0,0,0,9.4-9.394c0-.146-.005-.287-.012-.427A6.586,6.586,0,0,0,16.1,49.549Z" transform="translate(5.816 -40.451)" fill="#fff"/>
    <g id="Ellipse_16" data-name="Ellipse 16" transform="translate(-0.445 0)" fill="none" stroke="#9c9ca8" stroke-width="1">
      <circle cx="14.5" cy="14.5" r="14.5" stroke="none"/>
      <circle cx="14.5" cy="14.5" r="14" fill="none"/>
    </g>
  </g>
</svg>
