<svg id="arrow-right-short" xmlns="http://www.w3.org/2000/svg" width="18.003" height="15.753" viewBox="0 0 18.003 15.753">
  <path id="Path_24128" data-name="Path 24128" d="M18.329,10.454a1.125,1.125,0,0,1,1.593,0l6.75,6.75a1.125,1.125,0,0,1,0,1.593l-6.75,6.75a1.126,1.126,0,1,1-1.593-1.593L24.284,18l-5.955-5.954a1.125,1.125,0,0,1,0-1.593Z" transform="translate(-9 -10.123)" fill="#fff" fill-rule="evenodd"/>
  <path id="Path_24129" data-name="Path 24129" d="M9,18a1.125,1.125,0,0,1,1.125-1.125H24.75a1.125,1.125,0,0,1,0,2.25H10.125A1.125,1.125,0,0,1,9,18Z" transform="translate(-9 -10.123)" fill="#fff" fill-rule="evenodd"/>
</svg>
