<svg id="notebook-reference" xmlns="http://www.w3.org/2000/svg" width="23.934" height="20.515" viewBox="0 0 23.934 20.515">
  <path id="Path_24087" data-name="Path 24087" d="M3.96,22.5v1.71H7.025L2.25,28.984l1.209,1.209,4.775-4.775v3.065h1.71V22.5Z" transform="translate(-2.25 -9.678)"/>
  <path id="Path_24088" data-name="Path 24088" d="M21.375,11.25h5.983v1.71H21.375Z" transform="translate(-6.844 -6.976)"/>
  <path id="Path_24089" data-name="Path 24089" d="M21.375,16.875h5.983v1.71H21.375Z" transform="translate(-6.844 -8.327)"/>
  <path id="Path_24090" data-name="Path 24090" d="M21.375,22.5h5.983v1.71H21.375Z" transform="translate(-6.844 -9.678)"/>
  <path id="Path_24091" data-name="Path 24091" d="M24.474,5.625H3.96a1.711,1.711,0,0,0-1.71,1.71v8.548H3.96V7.335h9.4v17.1H24.474a1.711,1.711,0,0,0,1.71-1.71V7.335A1.711,1.711,0,0,0,24.474,5.625Zm-9.4,17.1V7.335h9.4l0,15.386Z" transform="translate(-2.25 -5.625)"/>
</svg>
