<svg xmlns="http://www.w3.org/2000/svg" width="29" height="29" viewBox="0 0 29 29">
  <g id="Group_21117" data-name="Group 21117" transform="translate(0.001 0)">
    <g id="facebook-logo_1_" data-name="facebook-logo (1)" transform="translate(10.703 6.027)">
      <path id="Path_63" data-name="Path 63" d="M130.808,5.483V4.041a3.178,3.178,0,0,1,.03-.5.976.976,0,0,1,.137-.35.56.56,0,0,1,.345-.239,2.458,2.458,0,0,1,.635-.066H133.4V0h-2.305a3.752,3.752,0,0,0-2.874.949,4,4,0,0,0-.873,2.8V5.483h-1.726V8.367h1.726v8.367h3.463V8.367h2.3l.3-2.884Z" transform="translate(-125.619)" fill="#fff"/>
    </g>
    <g id="Ellipse_16" data-name="Ellipse 16" transform="translate(-0.001 0)" fill="none" stroke="#9c9ca8" stroke-width="1">
      <circle cx="14.5" cy="14.5" r="14.5" stroke="none"/>
      <circle cx="14.5" cy="14.5" r="14" fill="none"/>
    </g>
  </g>
</svg>
