<svg xmlns="http://www.w3.org/2000/svg" width="26.372" height="17.089" viewBox="0 0 26.372 17.089">
  <g id="Group_21130" data-name="Group 21130" transform="matrix(0.017, 1, -1, 0.017, 977.902, -724.722)">
    <g id="Group_21121" data-name="Group 21121" transform="translate(708 964.323)">
      <g id="Group_81" data-name="Group 81">
        <path id="Path_8249" data-name="Path 8249" d="M84.044,0c-4.587,0-8.318,4.185-8.318,9.329v7.429c0,5.144,3.731,9.329,8.318,9.329s8.318-4.172,8.318-9.3V9.329C92.362,4.185,88.631,0,84.044,0ZM90.8,16.786c0,4.176-3.029,7.572-6.754,7.572s-6.754-3.41-6.754-7.6V9.329c0-4.191,3.03-7.6,6.754-7.6s6.754,3.41,6.754,7.6Z" transform="translate(-75.726)" fill="#fff"/>
      </g>
    </g>
    <g id="Group_21122" data-name="Group 21122" transform="translate(715.536 971.464)">
      <g id="Group_83" data-name="Group 83">
        <path id="Path_8250" data-name="Path 8250" d="M239.828,140.15a.826.826,0,0,0-.782.864v3.023a.786.786,0,1,0,1.565,0v-3.023A.826.826,0,0,0,239.828,140.15Z" transform="translate(-239.046 -140.15)" fill="#fff"/>
      </g>
    </g>
  </g>
</svg>
