<svg xmlns="http://www.w3.org/2000/svg" width="11.629" height="11.625" viewBox="0 0 11.629 11.625">
  <path id="phone" d="M13.652,15h-.076C4.79,14.495,3.543,7.081,3.369,4.819A1.341,1.341,0,0,1,4.6,3.375H7.066a.894.894,0,0,1,.832.563l.679,1.672a.894.894,0,0,1-.2.966l-.952.961a4.189,4.189,0,0,0,3.389,3.4l.97-.961a.894.894,0,0,1,.97-.183l1.686.675a.894.894,0,0,1,.55.831v2.361A1.341,1.341,0,0,1,13.652,15ZM4.71,4.269a.447.447,0,0,0-.447.447v.036c.206,2.647,1.525,8.907,9.363,9.354a.447.447,0,0,0,.474-.42V11.3l-1.686-.675L11.131,11.9l-.215-.027A5.205,5.205,0,0,1,6.5,7.452l-.027-.215,1.27-1.283L7.071,4.269Z" transform="translate(-3.364 -3.375)"/>
</svg>
